<svg id="visual" viewBox="0 0 960 540" width="960" height="540" xmlns="http://www.w3.org/2000/svg" xmlns:xlink="http://www.w3.org/1999/xlink" version="1.1"><rect x="0" y="0" width="960" height="540" fill="#e7f155"></rect><path d="M313 0L295 0L295 54L302 54L302 108L387 108L387 162L269 162L269 216L339 216L339 270L363 270L363 324L279 324L279 378L288 378L288 432L354 432L354 486L374 486L374 540L0 540L0 486L0 486L0 432L0 432L0 378L0 378L0 324L0 324L0 270L0 270L0 216L0 216L0 162L0 162L0 108L0 108L0 54L0 54L0 0L0 0Z" fill="#871400"></path><path d="M247 0L378 0L378 54L362 54L362 108L255 108L255 162L265 162L265 216L280 216L280 270L280 270L280 324L311 324L311 378L248 378L248 432L305 432L305 486L274 486L274 540L0 540L0 486L0 486L0 432L0 432L0 378L0 378L0 324L0 324L0 270L0 270L0 216L0 216L0 162L0 162L0 108L0 108L0 54L0 54L0 0L0 0Z" fill="#932003"></path><path d="M258 0L243 0L243 54L331 54L331 108L335 108L335 162L297 162L297 216L278 216L278 270L316 270L316 324L210 324L210 378L231 378L231 432L324 432L324 486L314 486L314 540L0 540L0 486L0 486L0 432L0 432L0 378L0 378L0 324L0 324L0 270L0 270L0 216L0 216L0 162L0 162L0 108L0 108L0 54L0 54L0 0L0 0Z" fill="#9f2a04"></path><path d="M265 0L176 0L176 54L242 54L242 108L287 108L287 162L220 162L220 216L248 216L248 270L194 270L194 324L258 324L258 378L213 378L213 432L237 432L237 486L260 486L260 540L0 540L0 486L0 486L0 432L0 432L0 378L0 378L0 324L0 324L0 270L0 270L0 216L0 216L0 162L0 162L0 108L0 108L0 54L0 54L0 0L0 0Z" fill="#ac3505"></path><path d="M203 0L181 0L181 54L186 54L186 108L252 108L252 162L180 162L180 216L189 216L189 270L182 270L182 324L164 324L164 378L242 378L242 432L216 432L216 486L178 486L178 540L0 540L0 486L0 486L0 432L0 432L0 378L0 378L0 324L0 324L0 270L0 270L0 216L0 216L0 162L0 162L0 108L0 108L0 54L0 54L0 0L0 0Z" fill="#b83f06"></path><path d="M163 0L188 0L188 54L153 54L153 108L167 108L167 162L134 162L134 216L147 216L147 270L159 270L159 324L134 324L134 378L148 378L148 432L214 432L214 486L125 486L125 540L0 540L0 486L0 486L0 432L0 432L0 378L0 378L0 324L0 324L0 270L0 270L0 216L0 216L0 162L0 162L0 108L0 108L0 54L0 54L0 0L0 0Z" fill="#c44908"></path><path d="M187 0L150 0L150 54L152 54L152 108L175 108L175 162L98 162L98 216L151 216L151 270L168 270L168 324L183 324L183 378L116 378L116 432L124 432L124 486L128 486L128 540L0 540L0 486L0 486L0 432L0 432L0 378L0 378L0 324L0 324L0 270L0 270L0 216L0 216L0 162L0 162L0 108L0 108L0 54L0 54L0 0L0 0Z" fill="#d15308"></path><path d="M97 0L115 0L115 54L134 54L134 108L100 108L100 162L137 162L137 216L79 216L79 270L130 270L130 324L81 324L81 378L98 378L98 432L137 432L137 486L101 486L101 540L0 540L0 486L0 486L0 432L0 432L0 378L0 378L0 324L0 324L0 270L0 270L0 216L0 216L0 162L0 162L0 108L0 108L0 54L0 54L0 0L0 0Z" fill="#dd5e09"></path><path d="M60 0L55 0L55 54L52 54L52 108L81 108L81 162L71 162L71 216L69 216L69 270L62 270L62 324L79 324L79 378L56 378L56 432L47 432L47 486L48 486L48 540L0 540L0 486L0 486L0 432L0 432L0 378L0 378L0 324L0 324L0 270L0 270L0 216L0 216L0 162L0 162L0 108L0 108L0 54L0 54L0 0L0 0Z" fill="#e9680a"></path><path d="M47 0L71 0L71 54L59 54L59 108L42 108L42 162L24 162L24 216L35 216L35 270L61 270L61 324L61 324L61 378L50 378L50 432L64 432L64 486L50 486L50 540L0 540L0 486L0 486L0 432L0 432L0 378L0 378L0 324L0 324L0 270L0 270L0 216L0 216L0 162L0 162L0 108L0 108L0 54L0 54L0 0L0 0Z" fill="#f5730a"></path></svg>